<svg xmlns="http://www.w3.org/2000/svg" width="32" height="32" viewBox="0 0 32 32" fill="none">
  <rect width="32" height="32" rx="16" fill="#FF5722" />
  <path d="M11 9H19C20.0609 9 21.0783 9.42143 21.8284 10.1716C22.5786 10.9217 23 11.9391 23 13C23 13.7956 22.7654 14.5587 22.3259 15.2C21.8864 15.8413 21.2616 16.3322 20.5355 16.6066C21.0535 16.7935 21.5301 17.0762 21.9389 17.4424C22.3478 17.8086 22.6807 18.2513 22.9188 18.7424C23.1568 19.2335 23.2954 19.7633 23.3271 20.3053C23.3588 20.8474 23.2829 21.3902 23.1036 21.9056C22.9243 22.421 22.6451 22.8994 22.2829 23.3125C21.9207 23.7256 21.4825 24.0657 20.9925 24.3127C20.5025 24.5596 19.9701 24.7085 19.4268 24.7499C18.8835 24.7913 18.3372 24.7244 17.8172 24.5532H11V9ZM14 15.5H18.5C18.8978 15.5 19.2794 15.342 19.5607 15.0607C19.842 14.7794 20 14.3978 20 14C20 13.6022 19.842 13.2206 19.5607 12.9393C19.2794 12.658 18.8978 12.5 18.5 12.5H14V15.5ZM14 21.5H18.5C18.8978 21.5 19.2794 21.342 19.5607 21.0607C19.842 20.7794 20 20.3978 20 20C20 19.6022 19.842 19.2206 19.5607 18.9393C19.2794 18.658 18.8978 18.5 18.5 18.5H14V21.5Z" fill="white"/>
</svg>
